# xmcd
#
# Track frame offsets:
#	150
#	27440
#	53863
#	76005
#	94373
#	114880
#	140303
#	162498
#	206808
#	226520
#	245025
#
# Disc length: 3527 seconds
#
# Revision: 1
# Processed by: cddbd v1.5.1PL0 Copyright (c) Steve Scherf et al.
# Submitted via: CDex 1.50Beta5
#
DISCID=8a0dc50b
DTITLE=BUCK-TICK - Climax Together
DYEAR=1900
DGENRE=Rock
TTITLE0=JUPITER
TTITLE1=Brain,Whisper,Head,Hate is noise
TTITLE2=LOVE ME
TTITLE3=地下室のメロディー
TTITLE4=MY FUNNY VALENTINE
TTITLE5=TABOO
TTITLE6=HYPER LOVE
TTITLE7=VICTIMS OF LOVE
TTITLE8=MISTY BLUE
TTITLE9=ナルシス
TTITLE10=M・A・D
EXTD=
EXTT0=
EXTT1=
EXTT2=
EXTT3=
EXTT4=
EXTT5=
EXTT6=
EXTT7=
EXTT8=
EXTT9=
EXTT10=
PLAYORDER=
